<svg width="71" height="70" viewBox="0 0 71 70" fill="none" xmlns="http://www.w3.org/2000/svg">
<g clip-path="url(#clip0_2005_51)">
<ellipse cx="36.1937" cy="35" rx="35.1937" ry="35" fill="#C4F5F2"/>
<g clip-path="url(#clip1_2005_51)">
<path d="M45.7549 23.3722V21.5567C45.7549 19.0424 43.4039 17 40.5174 17H31.4039C28.5174 17 26.1664 19.0424 26.1664 21.5567V23.3722H20.5114C18.0333 23.3722 16.0091 25.3964 16.0091 27.8744V48.4977C16.0091 50.9849 18.0333 53 20.5114 53H51.41C53.8971 53 55.9123 50.9849 55.9123 48.4977V27.8744C55.9123 25.3873 53.8881 23.3722 51.41 23.3722H45.7549ZM54.0515 48.4977C54.0515 49.9592 52.8623 51.1483 51.4009 51.1483H20.5023C19.0409 51.1483 17.8518 49.9592 17.8518 48.4977V27.8744C17.8518 26.413 19.0409 25.2239 20.5023 25.2239H51.4009C52.8623 25.2239 54.0515 26.413 54.0515 27.8744V48.4977ZM31.3949 18.8517H40.5083C42.3782 18.8517 43.8941 20.0681 43.8941 21.5567V23.3722H41.1891V22.5915C41.1891 21.112 39.8366 19.9047 38.1664 19.9047H33.7368C32.0666 19.9047 30.7141 21.112 30.7141 22.5915V23.3722H28.0091V21.5567C28.0091 20.0681 29.525 18.8517 31.3949 18.8517ZM39.3374 23.3722H32.5749V22.5915C32.5749 22.1377 33.1105 21.7564 33.7459 21.7564H38.1755C38.8109 21.7564 39.3465 22.1377 39.3465 22.5915V23.3722H39.3374Z" fill="#27B9B2"/>
<path d="M43.3313 35.2637H39.2375V31.1699C39.2375 30.8613 38.9924 30.6162 38.6838 30.6162H33.9637C33.655 30.6162 33.41 30.8613 33.41 31.1699V35.2637H29.3162C29.0075 35.2637 28.7625 35.5088 28.7625 35.8174V40.5375C28.7625 40.8462 29.0075 41.0912 29.3162 41.0912H33.41V45.185C33.41 45.4937 33.655 45.7388 33.9637 45.7388H38.6838C38.9924 45.7388 39.2375 45.4937 39.2375 45.185V41.0912H43.3313C43.6399 41.0912 43.885 40.8462 43.885 40.5375V35.8174C43.885 35.5088 43.6399 35.2637 43.3313 35.2637ZM42.7776 39.9838H38.6838C38.3752 39.9838 38.1301 40.2289 38.1301 40.5375V44.6313H34.5174V40.5375C34.5174 40.2289 34.2723 39.9838 33.9637 39.9838H29.8699V36.3802H33.9637C34.2723 36.3802 34.5174 36.1351 34.5174 35.8265V31.7327H38.1301V35.8265C38.1301 36.1351 38.3752 36.3802 38.6838 36.3802H42.7776V39.9838Z" fill="#27B9B2"/>
</g>
</g>
<defs>
<clipPath id="clip0_2005_51">
<rect width="71" height="70" fill="white"/>
</clipPath>
<clipPath id="clip1_2005_51">
<rect width="39.9123" height="36" fill="white" transform="translate(16 17)"/>
</clipPath>
</defs>
</svg>
