<svg width="71" height="70" viewBox="0 0 71 70" fill="none" xmlns="http://www.w3.org/2000/svg">
<g clip-path="url(#clip0_2005_40)">
<ellipse cx="36.1937" cy="35" rx="35.1937" ry="35" fill="#FFE3E4"/>
<g clip-path="url(#clip1_2005_40)">
<path d="M23.2657 46.839H29.6006V50.145H23.9061C23.4215 50.145 23.0234 50.5431 23.0234 51.0277V54.1173C23.0234 54.6019 23.4215 55 23.9061 55H47.3159C47.8005 55 48.1986 54.6019 48.1986 54.1173V51.0277C48.1986 50.5431 47.8005 50.145 47.3159 50.145H41.6214V46.839H47.9563C51.4093 46.839 54.222 44.0264 54.222 40.5733V21.2657C54.222 17.8126 51.4093 15 47.9563 15H23.2657C19.8126 15 17 17.8126 17 21.2657V40.5647C17 44.0177 19.8126 46.8304 23.2657 46.8304V46.839ZM18.7655 21.2657C18.7655 18.7819 20.7819 16.7655 23.2657 16.7655H47.9563C50.4401 16.7655 52.4565 18.7819 52.4565 21.2657V40.5647C52.4565 43.0485 50.4401 45.0649 47.9563 45.0649H23.2657C20.7819 45.0649 18.7655 43.0485 18.7655 40.5647V21.2657ZM46.4418 53.2345H24.7888V51.9104H46.4331V53.2345H46.4418ZM31.3661 50.1363V46.8304H39.8646V50.1363H31.3661Z" fill="#F67277"/>
<path d="M23.0234 32.1186V35.4591C23.0234 38.9122 25.836 41.7248 29.289 41.7248H41.9329C45.386 41.7248 48.1986 38.9122 48.1986 35.4591V32.1791C48.4063 32.058 48.5534 31.833 48.5534 31.5733C48.5534 31.3137 48.4063 31.0887 48.1986 30.9675V26.3721C48.1986 22.9191 45.386 20.1064 41.9329 20.1064H29.289C25.836 20.1064 23.0234 22.9191 23.0234 26.3721V31.0281C22.8676 31.1579 22.7637 31.357 22.7637 31.5733C22.7637 31.7897 22.8676 31.9887 23.0234 32.1186ZM29.289 21.8719H41.9329C44.4167 21.8719 46.4331 23.8884 46.4331 26.3721V30.8637H43.0753L41.881 26.7875C41.7945 26.4933 41.5262 26.2856 41.2233 26.2856C40.9204 26.2683 40.6348 26.4673 40.5396 26.7616L38.3674 33.0965L36.1 24.7192C36.0221 24.4422 35.7971 24.2432 35.5201 24.1999C35.2345 24.1566 34.9662 24.2951 34.8191 24.5374L31.0286 30.855H24.7975V26.3635C24.7975 23.8797 26.8139 21.8633 29.2977 21.8633L29.289 21.8719ZM41.9416 39.9593H29.2977C26.8139 39.9593 24.7975 37.9429 24.7975 35.4591V32.283H31.4266C31.6776 32.283 31.9026 32.1532 32.0324 31.9368L35.1739 26.701L37.6058 35.7014C37.6837 36.0043 37.952 36.212 38.2635 36.2207H38.2895C38.5924 36.2207 38.8607 36.0303 38.9559 35.7447L41.154 29.3232L41.8723 31.7724C41.9589 32.0666 42.2358 32.283 42.5474 32.283H46.4331V35.4591C46.4331 37.9429 44.4167 39.9593 41.9329 39.9593H41.9416ZM47.8524 31.9282H42.5474C42.3916 31.9282 42.2531 31.8243 42.2099 31.6772L41.18 28.1636L38.6183 35.6322C38.5664 35.7793 38.4366 35.8745 38.2808 35.8745C38.1164 35.8745 37.9779 35.762 37.9433 35.6149L35.2864 25.8183L31.7209 31.7724C31.6603 31.8762 31.5392 31.9455 31.418 31.9455H23.4647C23.2657 31.9455 23.1099 31.7897 23.1099 31.5907C23.1099 31.3916 23.2657 31.2358 23.4647 31.2358H31.2189L35.1134 24.7451C35.1826 24.624 35.3211 24.5547 35.4682 24.5807C35.6067 24.598 35.7278 24.7019 35.7624 24.8403L38.3327 34.3254L40.8771 26.9C40.929 26.7529 41.0762 26.6577 41.2233 26.6577C41.3791 26.6577 41.5089 26.7616 41.5521 26.9087L42.8243 31.2358H47.8611C48.0601 31.2358 48.2159 31.3916 48.2159 31.5907C48.2159 31.7897 48.0601 31.9455 47.8611 31.9455L47.8524 31.9282Z" fill="#F67277"/>
</g>
</g>
<defs>
<clipPath id="clip0_2005_40">
<rect width="71" height="70" fill="white"/>
</clipPath>
<clipPath id="clip1_2005_40">
<rect width="37.2306" height="40" fill="white" transform="translate(17 15)"/>
</clipPath>
</defs>
</svg>
