<svg width="71" height="70" viewBox="0 0 71 70" fill="none" xmlns="http://www.w3.org/2000/svg">
<g clip-path="url(#clip0_2005_46)">
<ellipse cx="36.1937" cy="35" rx="35.1937" ry="35" fill="#FFE6C5"/>
<g clip-path="url(#clip1_2005_46)">
<path d="M27.2236 43.9612C27.7895 50.1375 32.9972 55 39.327 55C46.0309 55 51.4784 49.5525 51.4784 42.8487V36.4996C53.4157 35.742 54.7967 33.8622 54.7967 31.666C54.7967 28.808 52.4662 26.4774 49.6082 26.4774C46.7502 26.4774 44.4196 28.808 44.4196 31.666C44.4196 33.8047 45.7144 35.6365 47.5654 36.4325V42.8391C47.5654 47.3754 43.873 51.0774 39.327 51.0774C35.1551 51.0774 31.712 47.9605 31.175 43.9324C37.1308 42.9637 41.2643 37.7368 41.2643 30.7932V15.9565C41.2643 14.8727 40.382 14 39.3078 14C38.8571 14 38.4543 14.1535 38.1282 14.4028C37.7542 14.1918 37.3226 14.0671 36.8622 14.0671C35.4428 14.0671 34.2919 15.218 34.2919 16.6374C34.2919 18.0568 35.4428 19.2077 36.8622 19.2077C37.0349 19.2077 37.1979 19.1885 37.3609 19.1598V30.7932C37.3609 36.3174 33.985 40.1825 29.1513 40.1825C24.3177 40.1825 20.9418 36.3174 20.9418 30.7932V19.1981C21.0185 19.1981 21.0856 19.2077 21.1623 19.2077C22.5818 19.2077 23.7326 18.0568 23.7326 16.6374C23.7326 15.218 22.553 14.0671 21.1432 14.0671C20.7499 14.0671 20.3663 14.163 20.0306 14.3261C19.7237 14.1247 19.3497 14 18.9565 14C17.8823 14 17 14.8823 17 15.9565V30.7932C17 37.7848 21.2007 43.0405 27.2236 43.9516V43.9612ZM18.1701 15.9565C18.1701 15.5249 18.5249 15.1701 18.9565 15.1701C19.3881 15.1701 19.7429 15.5249 19.7429 15.9565V30.7932C19.7429 37.0175 23.608 41.3525 29.1322 41.3525C34.6564 41.3525 38.5214 37.008 38.5214 30.7932V15.9565C38.5214 15.5249 38.8763 15.1701 39.3078 15.1701C39.7394 15.1701 40.0943 15.5249 40.0943 15.9565V30.7932C40.0943 37.8232 35.4908 42.9254 29.1418 42.9254C22.7927 42.9254 18.1701 37.8232 18.1701 30.7932V15.9565ZM22.1406 16.6374C22.1406 17.1937 21.6898 17.6444 21.1336 17.6444C21.0568 17.6444 20.9801 17.6349 20.913 17.6157V15.9565C20.913 15.8606 20.8938 15.7647 20.8842 15.6688C20.9609 15.6496 21.0473 15.6304 21.1336 15.6304C21.6898 15.6304 22.1406 16.0812 22.1406 16.6374ZM35.8456 16.6374C35.8456 16.0812 36.2964 15.6304 36.8526 15.6304C37.0444 15.6304 37.2171 15.688 37.3609 15.7743C37.3609 15.8318 37.3418 15.8894 37.3418 15.9565V17.5102C37.1979 17.5965 37.0253 17.6444 36.843 17.6444C36.2868 17.6444 35.836 17.1937 35.836 16.6374H35.8456ZM48.7354 42.8391V31.6372C48.7354 31.2056 49.0903 30.8508 49.5219 30.8508C49.9534 30.8508 50.3083 31.2056 50.3083 31.6372V42.8391C50.3083 48.8908 45.3883 53.8204 39.327 53.8204C33.6877 53.8204 29.0363 49.5525 28.4225 44.0763C28.6622 44.0858 28.8924 44.0954 29.1322 44.0954C29.4295 44.0954 29.7172 44.0858 29.9953 44.0667C30.5995 48.6798 34.5509 52.2571 39.327 52.2571C44.5156 52.2571 48.7354 48.0372 48.7354 42.8487V42.8391ZM49.5986 27.6475C51.814 27.6475 53.6171 29.4505 53.6171 31.666C53.6171 33.2005 52.7443 34.5432 51.4784 35.2145V31.6372C51.4784 30.5534 50.596 29.6807 49.5219 29.6807C48.4477 29.6807 47.5654 30.563 47.5654 31.6372V35.109C46.3857 34.4089 45.5993 33.1237 45.5993 31.6564C45.5993 29.4409 47.4023 27.6379 49.6178 27.6379L49.5986 27.6475Z" fill="#FFA837"/>
</g>
</g>
<defs>
<clipPath id="clip0_2005_46">
<rect width="71" height="70" fill="white"/>
</clipPath>
<clipPath id="clip1_2005_46">
<rect width="37.7871" height="41" fill="white" transform="translate(17 14)"/>
</clipPath>
</defs>
</svg>
