<svg width="71" height="70" viewBox="0 0 71 70" fill="none" xmlns="http://www.w3.org/2000/svg">
<g clip-path="url(#clip0_2005_41)">
<ellipse cx="36.1937" cy="35" rx="35.1937" ry="35" fill="#E9F9BE"/>
<g clip-path="url(#clip1_2005_41)">
<path d="M18.3788 22.654C18.2109 22.8389 18.0616 23.0238 17.9124 23.2272C16.6064 24.3735 15.5709 26.8972 16.1773 30.0125C18.7892 43.4814 30.2351 53.7426 44.0131 54.9628C44.3116 54.9905 44.6008 54.9998 44.8993 54.9998C46.4851 54.9998 47.9777 54.6115 49.1624 53.8905C49.7407 53.5577 50.2444 53.1509 50.6829 52.6702L51.8676 51.376C54.1717 48.8431 53.9758 44.9235 51.4291 42.6402L49.4329 40.8468C48.2855 39.8207 46.793 39.2475 45.2444 39.2475C43.4814 39.2475 41.793 39.9871 40.6176 41.2813L39.4329 42.5755C38.9665 43.0839 38.6027 43.6478 38.3321 44.2764C33.612 42.3074 29.7407 38.8038 27.3527 34.3111C28.2202 33.9598 29.0038 33.4236 29.6288 32.7303L30.8135 31.4361C31.9329 30.2066 32.5019 28.6259 32.418 26.9711C32.334 25.3256 31.6064 23.8003 30.375 22.691L28.3788 20.9069C27.2314 19.8715 25.7389 19.3076 24.1903 19.3076C22.4273 19.3076 20.7389 20.0472 19.5635 21.3414L18.3788 22.6356V22.654ZM20.7482 22.4229C21.625 21.4615 22.875 20.9161 24.1903 20.9161C25.3377 20.9161 26.4478 21.3414 27.2967 22.0994L29.293 23.8835C30.2165 24.7063 30.7482 25.8341 30.8135 27.0636C30.8788 28.2931 30.4497 29.4671 29.6194 30.373L28.4347 31.6672C27.8657 32.2866 27.1381 32.7488 26.3359 32.9892L25.9721 33.1001C25.7482 33.1648 25.5616 33.3312 25.4683 33.5438C25.375 33.7564 25.3844 34.006 25.487 34.2094L25.6549 34.5422C28.2762 39.756 32.7258 43.805 38.1922 45.9404L38.5 46.0606C38.7053 46.1438 38.9291 46.1345 39.1344 46.0421C39.3303 45.9496 39.4888 45.7832 39.5541 45.5706L39.6568 45.2563C39.862 44.6554 40.1791 44.11 40.6176 43.6386L41.8023 42.3444C42.6791 41.383 43.9385 40.8283 45.2444 40.8283C46.3918 40.8283 47.5019 41.2535 48.3508 42.0208L50.3471 43.8142C52.2407 45.5152 52.39 48.4271 50.6735 50.3037L49.4889 51.5979C49.1624 51.9492 48.7799 52.2542 48.3415 52.5131C47.2034 53.2064 45.7202 53.5115 44.153 53.3635C31.084 52.1988 20.2258 42.4645 17.7444 29.6982C17.2221 27.0173 18.2015 25.0576 18.9944 24.3827C19.0224 24.3642 19.0411 24.3365 19.0691 24.3088L19.125 24.2533C19.125 24.2533 19.1717 24.1978 19.1903 24.1701C19.3023 24.013 19.4236 23.8558 19.5635 23.7079L20.7482 22.4137V22.4229Z" fill="#A0C246"/>
<path d="M56 33.8861C56 23.4678 47.4552 15 36.9421 15C36.0186 15 35.2723 15.7395 35.2723 16.6547C35.2723 17.5699 36.0186 18.3095 36.9421 18.3095C45.6082 18.3095 52.6604 25.2981 52.6604 33.8861C52.6604 34.8012 53.4067 35.5408 54.3302 35.5408C55.2537 35.5408 56 34.8012 56 33.8861ZM54.3302 34.7458C53.8544 34.7458 53.4626 34.3575 53.4626 33.8861C53.4626 24.8636 46.0559 17.5144 36.9421 17.5144C36.4664 17.5144 36.0746 17.1262 36.0746 16.6547C36.0746 16.1833 36.4664 15.795 36.9421 15.795C47.0074 15.795 55.1977 23.9115 55.1977 33.8861C55.1977 34.3575 54.8059 34.7458 54.3302 34.7458Z" fill="#A0C246"/>
<path d="M36.7369 21.1475C35.8134 21.1475 35.0671 21.887 35.0671 22.8022C35.0671 23.7174 35.8134 24.4569 36.7369 24.4569C42.0914 24.4569 46.4571 28.774 46.4571 34.0895C46.4571 35.0046 47.2033 35.7442 48.1268 35.7442C49.0503 35.7442 49.7966 35.0046 49.7966 34.0895C49.7966 26.9529 43.9384 21.1475 36.7369 21.1475ZM48.1268 34.9492C47.6511 34.9492 47.2593 34.5609 47.2593 34.0895C47.2593 28.3395 42.5392 23.6619 36.7369 23.6619C36.2612 23.6619 35.8694 23.2736 35.8694 22.8022C35.8694 22.3307 36.2612 21.9425 36.7369 21.9425C43.4906 21.9425 48.9944 27.3873 48.9944 34.0802C48.9944 34.5517 48.6026 34.9399 48.1268 34.9399V34.9492Z" fill="#A0C246"/>
</g>
</g>
<defs>
<clipPath id="clip0_2005_41">
<rect width="71" height="70" fill="white"/>
</clipPath>
<clipPath id="clip1_2005_41">
<rect width="40" height="40" fill="white" transform="translate(16 15)"/>
</clipPath>
</defs>
</svg>
