<svg width="18" height="10" viewBox="0 0 18 10" fill="none" xmlns="http://www.w3.org/2000/svg">
<path fill-rule="evenodd" clip-rule="evenodd" d="M18 9.15542C18 9.54437 17.4801 9.85967 16.8387 9.85967L1.16129 9.85967C0.519928 9.85967 -6.78526e-08 9.54437 -4.37114e-08 9.15542C-1.95703e-08 8.76648 0.519928 8.45117 1.16129 8.45117L16.8387 8.45117C17.4801 8.45117 18 8.76648 18 9.15542Z" fill="#005C9C"/>
<path fill-rule="evenodd" clip-rule="evenodd" d="M18 4.92984C18 5.31878 17.5523 5.63409 17 5.63409L1 5.63408C0.447716 5.63408 -6.78525e-08 5.31878 -4.37114e-08 4.92984C-1.95703e-08 4.54089 0.447716 4.22559 1 4.22559L17 4.22559C17.5523 4.22559 18 4.54089 18 4.92984Z" fill="#005C9C"/>
<path fill-rule="evenodd" clip-rule="evenodd" d="M18 0.704249C18 1.09319 17.4801 1.4085 16.8387 1.4085L1.16129 1.4085C0.519928 1.4085 -6.78526e-08 1.0932 -4.37115e-08 0.704251C-1.95704e-08 0.315306 0.519928 2.77804e-06 1.16129 2.67185e-06L16.8387 -3.57488e-08C17.4801 -1.83911e-07 18 0.315302 18 0.704249Z" fill="#005C9C"/>
</svg>
