<svg width="184" height="38" viewBox="0 0 184 38" fill="none" xmlns="http://www.w3.org/2000/svg">
<g clip-path="url(#clip0_5_2)">
<path d="M11.3979 1.77689C11.3979 2.75671 12.184 3.5487 13.1565 3.5487C14.129 3.5487 14.9201 2.75671 14.9201 1.77689C14.9201 0.797061 14.1341 0 13.1565 0C12.179 0 11.3979 0.797061 11.3979 1.77689Z" fill="#003F5D"/>
<path d="M13.1616 4.64551C14.4364 4.64551 15.4643 5.68626 15.4643 6.96562C15.4643 8.24497 14.4314 9.2908 13.1616 9.2908C11.8918 9.2908 10.8538 8.25005 10.8538 6.96562C10.8538 5.68118 11.8867 4.64551 13.1616 4.64551Z" fill="#003F5D"/>
<path d="M10.3096 13.2602C10.3096 14.8442 11.5844 16.1286 13.1565 16.1286C14.7287 16.1286 16.0086 14.8442 16.0086 13.2602C16.0086 11.6762 14.7337 10.3867 13.1565 10.3867C11.5794 10.3867 10.3096 11.6712 10.3096 13.2602Z" fill="#003F5D"/>
<path d="M1.76361 15.0321C2.73612 15.0321 3.52218 14.2401 3.52218 13.2603C3.52218 12.2805 2.73612 11.4834 1.76361 11.4834C0.791105 11.4834 0 12.2754 0 13.2603C0 14.2452 0.791105 15.0321 1.76361 15.0321Z" fill="#003F5D"/>
<path d="M4.6106 13.2557C4.6106 11.9712 5.64357 10.9355 6.91337 10.9355C8.18317 10.9355 9.22118 11.9763 9.22118 13.2557C9.22118 14.535 8.18821 15.5808 6.91337 15.5808C5.63853 15.5808 4.6106 14.5401 4.6106 13.2557Z" fill="#003F5D"/>
<path d="M11.3979 36.2279C11.3979 35.248 12.184 34.4561 13.1565 34.4561C14.129 34.4561 14.9201 35.248 14.9201 36.2279C14.9201 37.2077 14.1341 38.0048 13.1565 38.0048C12.179 38.0048 11.3979 37.2077 11.3979 36.2279Z" fill="#0073AE"/>
<path d="M13.1616 33.3543C14.4364 33.3543 15.4643 32.3135 15.4643 31.0342C15.4643 29.7548 14.4314 28.709 13.1616 28.709C11.8918 28.709 10.8538 29.7497 10.8538 31.0342C10.8538 32.3186 11.8867 33.3543 13.1616 33.3543Z" fill="#0073AE"/>
<path d="M10.3096 24.7395C10.3096 23.1555 11.5844 21.8711 13.1565 21.8711C14.7287 21.8711 16.0086 23.1555 16.0086 24.7395C16.0086 26.3235 14.7337 27.613 13.1565 27.613C11.5794 27.613 10.3096 26.3285 10.3096 24.7395Z" fill="#0073AE"/>
<path d="M1.76361 22.9678C2.73612 22.9678 3.52218 23.7598 3.52218 24.7447C3.52218 25.7296 2.73612 26.5215 1.76361 26.5215C0.791105 26.5215 0 25.7296 0 24.7447C0 23.7598 0.791105 22.9678 1.76361 22.9678Z" fill="#0073AE"/>
<path d="M4.6106 24.7441C4.6106 26.0286 5.64357 27.0642 6.91337 27.0642C8.18317 27.0642 9.22118 26.0235 9.22118 24.7441C9.22118 23.4648 8.18821 22.4189 6.91337 22.4189C5.63853 22.4189 4.6106 23.4597 4.6106 24.7441Z" fill="#0073AE"/>
<path d="M26.3181 36.2279C26.3181 35.248 25.532 34.4561 24.5545 34.4561C23.577 34.4561 22.7909 35.248 22.7909 36.2279C22.7909 37.2077 23.577 38.0048 24.5545 38.0048C25.532 38.0048 26.3181 37.2077 26.3181 36.2279Z" fill="#003F5D"/>
<path d="M24.5545 33.3543C23.2796 33.3543 22.2517 32.3135 22.2517 31.0342C22.2517 29.7548 23.2847 28.709 24.5545 28.709C25.8243 28.709 26.8623 29.7497 26.8623 31.0342C26.8623 32.3186 25.8293 33.3543 24.5545 33.3543Z" fill="#003F5D"/>
<path d="M27.4065 24.7395C27.4065 23.1555 26.1317 21.8711 24.5545 21.8711C22.9774 21.8711 21.7025 23.1555 21.7025 24.7395C21.7025 26.3235 22.9774 27.613 24.5545 27.613C26.1317 27.613 27.4065 26.3285 27.4065 24.7395Z" fill="#003F5D"/>
<path d="M35.9525 22.9678C34.98 22.9678 34.1939 23.7598 34.1939 24.7447C34.1939 25.7296 34.98 26.5215 35.9525 26.5215C36.925 26.5215 37.7161 25.7296 37.7161 24.7447C37.7161 23.7598 36.925 22.9678 35.9525 22.9678Z" fill="#003F5D"/>
<path d="M33.1055 24.7441C33.1055 26.0286 32.0725 27.0642 30.8027 27.0642C29.5329 27.0642 28.4949 26.0235 28.4949 24.7441C28.4949 23.4648 29.5279 22.4189 30.8027 22.4189C32.0776 22.4189 33.1055 23.4597 33.1055 24.7441Z" fill="#003F5D"/>
<path d="M35.9525 11.4834C34.98 11.4834 34.1939 12.2754 34.1939 13.2603C34.1939 14.2452 34.98 15.0372 35.9525 15.0372C36.925 15.0372 37.7161 14.2452 37.7161 13.2603C37.7161 12.2754 36.925 11.4834 35.9525 11.4834Z" fill="#0073AE"/>
<path d="M33.1055 13.2607C33.1055 14.5452 32.0725 15.5808 30.8027 15.5808C29.5329 15.5808 28.4949 14.5401 28.4949 13.2607C28.4949 11.9814 29.5279 10.9355 30.8027 10.9355C32.0776 10.9355 33.1055 11.9763 33.1055 13.2607Z" fill="#0073AE"/>
<path d="M24.5545 10.3867C22.9824 10.3867 21.7075 11.6712 21.7075 13.2602C21.7075 14.8492 22.9824 16.1337 24.5545 16.1337C26.1266 16.1337 27.4065 14.8492 27.4065 13.2602C27.4065 11.6712 26.1317 10.3867 24.5545 10.3867Z" fill="#0073AE"/>
<path d="M22.7959 1.77689C22.7959 2.75671 23.582 3.5487 24.5545 3.5487C25.527 3.5487 26.3181 2.75671 26.3181 1.77689C26.3181 0.797061 25.532 0 24.5545 0C23.5769 0 22.7959 0.797061 22.7959 1.77689Z" fill="#0073AE"/>
<path d="M24.5595 4.64551C25.8344 4.64551 26.8623 5.68626 26.8623 6.96562C26.8623 8.24497 25.8293 9.2908 24.5595 9.2908C23.2897 9.2908 22.2517 8.25005 22.2517 6.96562C22.2517 5.68118 23.2847 4.64551 24.5595 4.64551Z" fill="#0073AE"/>
<path d="M174.033 5.10242L176.714 11.5449H171.322L174.033 5.10242ZM168.324 18.9926L170.138 14.6976H177.928L179.742 18.9926H183.768L175.872 0.330207H172.239L164.348 18.9926H168.324ZM163.189 22.785V15.5759H160.64V0.43682H156.85V15.5708H149.141V0.43682H145.352V18.9926H159.612V22.785H163.189ZM128.487 18.9926L137.511 6.82854V18.9926H141.275V0.43682H138.01L129.091 12.5247V0.43682H125.302V18.9926H128.487ZM104.204 18.8352C104.386 18.9114 104.612 18.9723 104.869 19.0129C105.131 19.0535 105.424 19.0738 105.756 19.0738C106.845 19.0738 107.767 18.8657 108.528 18.4545C109.283 18.0432 109.873 17.4289 110.306 16.6065C110.74 15.7739 111.077 14.6062 111.319 13.1086C111.561 11.6109 111.712 9.78325 111.778 7.62052L111.883 3.8586H117.461V18.9926H121.226V0.43682H108.23L108.155 5.86902C108.124 7.75252 108.059 9.33649 107.963 10.6209C107.857 11.9003 107.721 12.8852 107.55 13.5553C107.379 14.2305 107.132 14.7433 106.799 15.0834C106.472 15.4236 106.053 15.5962 105.555 15.5962C105.293 15.5962 105.051 15.581 104.829 15.5404C104.602 15.5048 104.396 15.4541 104.214 15.3881V18.8352H104.204ZM83.5246 9.71725C83.5246 11.0525 83.7513 12.2912 84.1998 13.4335C84.6483 14.5808 85.3285 15.6165 86.2355 16.5557C87.1425 17.4949 88.1704 18.2006 89.3092 18.6677C90.4531 19.1348 91.7077 19.3632 93.0733 19.3632C94.4388 19.3632 95.6885 19.1297 96.8273 18.6677C97.961 18.2006 98.9789 17.4949 99.8859 16.5557C100.793 15.6165 101.478 14.5758 101.932 13.4335C102.39 12.2963 102.617 11.0575 102.617 9.71725C102.617 8.37697 102.39 7.11792 101.932 5.98071C101.478 4.8435 100.793 3.80783 99.8859 2.87877C98.9789 1.93956 97.961 1.23388 96.8273 0.766813C95.6885 0.304823 94.4388 0.0712891 93.0733 0.0712891C91.7077 0.0712891 90.448 0.304823 89.3092 0.766813C88.1704 1.23388 87.1425 1.93956 86.2355 2.87877C85.3285 3.80783 84.6483 4.83842 84.1998 5.98071C83.7463 7.12299 83.5246 8.36681 83.5246 9.71725ZM88.9968 14.063C88.4577 13.4944 88.0545 12.8446 87.7925 12.1186C87.5255 11.3926 87.3945 10.5905 87.3945 9.71725C87.3945 8.84403 87.5255 8.0419 87.7925 7.31083C88.0545 6.58993 88.4577 5.93502 88.9968 5.36641C89.536 4.79781 90.1457 4.3612 90.831 4.0769C91.5112 3.78752 92.262 3.64537 93.0783 3.64537C93.8946 3.64537 94.6404 3.7926 95.3105 4.0769C95.9858 4.3612 96.5904 4.79781 97.1296 5.36641C97.6687 5.93502 98.0769 6.58485 98.349 7.31083C98.6261 8.0419 98.7622 8.83896 98.7622 9.71725C98.7622 10.5955 98.6261 11.3926 98.349 12.1186C98.0769 12.8446 97.6687 13.4944 97.1296 14.063C96.5904 14.6316 95.9858 15.0581 95.3105 15.3525C94.6404 15.6419 93.8946 15.784 93.0783 15.784C92.262 15.784 91.5112 15.6419 90.831 15.3525C90.1457 15.0581 89.536 14.6316 88.9968 14.063ZM65.8986 3.8586H71.7134V18.9926H75.5027V3.8586H81.3427V0.43682H65.8986V3.8586ZM58.6627 19.3632C59.6604 19.3632 60.5977 19.2515 61.4694 19.0281C62.3361 18.7997 63.1473 18.4646 63.8981 18.0128V14.1696C63.2128 14.7128 62.452 15.119 61.6105 15.3881C60.769 15.6571 59.8469 15.7891 58.8492 15.7891C57.9422 15.7891 57.1107 15.647 56.365 15.3677C55.6142 15.0834 54.944 14.6621 54.3494 14.0884C53.7548 13.5198 53.3114 12.87 53.0141 12.1389C52.7118 11.4078 52.5606 10.6006 52.5606 9.71217C52.5606 8.82373 52.7017 8.02159 52.994 7.30068C53.2862 6.57977 53.7196 5.93502 54.294 5.36641C54.8886 4.79781 55.5436 4.3612 56.2743 4.0769C57.01 3.78752 57.8111 3.64537 58.693 3.64537C59.5748 3.64537 60.4566 3.76721 61.2628 4.00582C62.064 4.24444 62.8248 4.60489 63.5353 5.07703V1.23388C62.8148 0.848043 62.0489 0.558664 61.2376 0.365745C60.4314 0.167749 59.5748 0.0712891 58.6678 0.0712891C57.2317 0.0712891 55.9216 0.294669 54.7223 0.746506C53.5281 1.19834 52.4548 1.87356 51.5075 2.77216C50.5753 3.67583 49.8699 4.69627 49.4012 5.85379C48.9326 7.0113 48.6958 8.30081 48.6958 9.71725C48.6958 11.1337 48.9326 12.4029 49.4063 13.5553C49.8799 14.7128 50.5904 15.7434 51.5377 16.6623C52.485 17.5609 53.5533 18.2412 54.7374 18.688C55.9216 19.1398 57.2317 19.3632 58.6678 19.3632" fill="#003F5D"/>
<path d="M177.203 33.2485H179.183L182.171 37.5689H183.995L180.458 32.4464L183.743 27.5828H181.919L179.158 31.7458H177.203V27.5828H175.59V37.5689H177.203V33.2485ZM169.639 27.5878H168.122L162.786 34.8934C162.796 34.6649 162.801 34.2994 162.801 33.7968V27.5929H161.189V37.579H162.706L168.042 30.2735C168.032 30.5019 168.027 30.8624 168.027 31.3599V37.579H169.639V27.5929V27.5878ZM153.621 31.8219H148.395V27.5828H146.783V37.5689H148.395V33.3196H153.621V37.5689H155.233V27.5828H153.621V31.8219ZM140.827 27.5878H139.31L133.974 34.8934C133.984 34.6649 133.989 34.2994 133.989 33.7968V27.5929H132.377V37.579H133.893L139.229 30.2735C139.219 30.5019 139.214 30.8624 139.214 31.3599V37.579H140.827V27.5929V27.5878ZM119.946 28.5575C119.9 29.2429 119.85 29.8623 119.8 30.4207C119.749 30.9792 119.689 31.5579 119.613 32.1621C119.543 32.7662 119.457 33.2942 119.351 33.746C119.245 34.1979 119.124 34.6091 118.988 34.9797C118.852 35.3503 118.681 35.6346 118.469 35.8377C118.263 36.0357 118.031 36.1423 117.774 36.1524C117.512 36.1524 117.285 36.1169 117.094 36.0509V37.5486C117.441 37.6603 117.769 37.7212 118.071 37.7212C118.404 37.7212 118.701 37.6603 118.973 37.5435C119.24 37.4267 119.482 37.2338 119.689 36.9749C119.895 36.7109 120.082 36.4418 120.243 36.1677C120.404 35.8935 120.545 35.5178 120.666 35.0406C120.787 34.5634 120.888 34.1471 120.969 33.7765C121.049 33.411 121.125 32.9134 121.2 32.2839C121.276 31.6544 121.336 31.1416 121.377 30.7456C121.417 30.3446 121.467 29.7963 121.528 29.0906H124.813V37.579H126.426V27.5929H120.011C119.991 27.8112 119.971 28.1361 119.941 28.5626M105.872 33.2485H107.852L110.84 37.5689H112.664L109.127 32.4464L112.413 27.5828H110.588L107.827 31.7458H105.872V27.5828H104.26V37.5689H105.872V33.2485ZM92.7256 32.4921C93.5016 32.4921 94.1113 32.624 94.5598 32.883C95.0082 33.1419 95.2299 33.614 95.2299 34.2892C95.2299 34.9645 95.0082 35.4315 94.5598 35.6955C94.1113 35.9544 93.5016 36.0864 92.7256 36.0864H90.7151V32.4921H92.7256ZM96.8726 34.2943C96.8726 32.1265 95.4617 31.0299 92.64 31.0147H90.7151V27.5929H89.1027V37.579H92.64C95.4617 37.579 96.8726 36.4875 96.8726 34.2994M75.8605 29.0855H79.1458V37.574H80.7583V29.0855H84.0285V27.5878H75.8605V29.0855ZM64.1854 37.574H71.0937V36.0915H65.7978V33.284H70.5847V31.8016H65.7978V29.0754H71.008V27.5929H64.1854V37.579V37.574ZM51.1044 34.8934C51.4067 35.5585 51.8098 36.0966 52.3238 36.5027C52.8327 36.914 53.3971 37.2236 54.0068 37.4369C54.6215 37.6501 55.2564 37.7567 55.9165 37.7567C56.9445 37.7567 57.9019 37.5384 58.7887 37.1018V35.4925C58.1185 36.0052 57.2569 36.2641 56.1987 36.2641C55.5386 36.2641 54.9188 36.1423 54.3444 35.8935C53.77 35.6448 53.2812 35.2437 52.8882 34.6802C52.4901 34.1166 52.2936 33.4465 52.2936 32.6697C52.3037 31.431 52.6917 30.4969 53.4576 29.8623C54.2235 29.2277 55.1305 28.9078 56.1786 28.9078C57.1712 28.9078 58.0178 29.1566 58.7282 29.649V28.0651C57.8616 27.6285 56.9193 27.4102 55.9115 27.4102C55.2413 27.4102 54.6014 27.5218 53.9866 27.7401C53.3719 27.9585 52.8176 28.2783 52.3137 28.7047C51.8149 29.1261 51.4118 29.6795 51.1094 30.3649C50.8071 31.0502 50.6559 31.8219 50.6559 32.6748C50.6559 33.5277 50.8071 34.2334 51.1094 34.8985" fill="#0073AE"/>
</g>
<defs>
<clipPath id="clip0_5_2">
<rect width="184" height="38" fill="white"/>
</clipPath>
</defs>
</svg>
