<svg width="74" height="74" viewBox="0 0 74 74" fill="none" xmlns="http://www.w3.org/2000/svg">
<path d="M35.6745 35.8437C30.4902 35.8437 26.2831 31.6201 26.2831 26.4095C26.2831 21.1941 30.4902 16.9729 35.6745 16.9729C40.8588 16.9729 45.066 21.1966 45.066 26.4095C45.066 31.6176 40.8588 35.8437 35.6745 35.8437ZM35.6745 5.60156C24.1942 5.60156 14.8884 14.9503 14.8884 26.4853C14.8884 37.3803 24.3019 51.4338 30.5882 58.2762C32.9367 60.8289 35.6721 64.2709 35.6721 64.2709C35.6721 64.2709 38.6107 60.8094 41.1306 58.1809C47.412 51.6244 56.4581 38.46 56.4581 26.4853C56.4581 14.9503 47.1524 5.60156 35.6745 5.60156Z" fill="#005C9C"/>
<rect x="20.7849" y="11.793" width="29.4821" height="29.4821" rx="14.741" fill="white"/>
<path d="M31.9995 17.9681C31.9995 18.447 32.3866 18.8341 32.8655 18.8341C33.3445 18.8341 33.7341 18.447 33.7341 17.9681C33.7341 17.4892 33.3469 17.0996 32.8655 17.0996C32.3841 17.0996 31.9995 17.4892 31.9995 17.9681Z" fill="#003F5D"/>
<path d="M32.868 19.3711C33.4958 19.3711 34.002 19.8798 34.002 20.5051C34.002 21.1304 33.4933 21.6416 32.868 21.6416C32.2426 21.6416 31.7314 21.1329 31.7314 20.5051C31.7314 19.8773 32.2401 19.3711 32.868 19.3711Z" fill="#003F5D"/>
<path d="M31.4636 23.5803C31.4636 24.3545 32.0914 24.9823 32.8656 24.9823C33.6399 24.9823 34.2702 24.3545 34.2702 23.5803C34.2702 22.8061 33.6423 22.1758 32.8656 22.1758C32.089 22.1758 31.4636 22.8036 31.4636 23.5803Z" fill="#003F5D"/>
<path d="M27.255 24.4474C27.7339 24.4474 28.121 24.0603 28.121 23.5814C28.121 23.1025 27.7339 22.7129 27.255 22.7129C26.7761 22.7129 26.3865 23.1 26.3865 23.5814C26.3865 24.0628 26.7761 24.4474 27.255 24.4474Z" fill="#003F5D"/>
<path d="M28.657 23.5793C28.657 22.9515 29.1657 22.4453 29.791 22.4453C30.4163 22.4453 30.9275 22.954 30.9275 23.5793C30.9275 24.2047 30.4188 24.7158 29.791 24.7158C29.1632 24.7158 28.657 24.2071 28.657 23.5793Z" fill="#003F5D"/>
<path d="M31.9995 34.8074C31.9995 34.3285 32.3866 33.9414 32.8655 33.9414C33.3445 33.9414 33.7341 34.3285 33.7341 34.8074C33.7341 35.2864 33.3469 35.6759 32.8655 35.6759C32.3841 35.6759 31.9995 35.2864 31.9995 34.8074Z" fill="#0073AE"/>
<path d="M32.868 33.4033C33.4958 33.4033 34.002 32.8946 34.002 32.2693C34.002 31.644 33.4933 31.1328 32.868 31.1328C32.2426 31.1328 31.7314 31.6415 31.7314 32.2693C31.7314 32.8971 32.2401 33.4033 32.868 33.4033Z" fill="#0073AE"/>
<path d="M31.4636 29.1911C31.4636 28.4169 32.0914 27.7891 32.8656 27.7891C33.6399 27.7891 34.2702 28.4169 34.2702 29.1911C34.2702 29.9653 33.6423 30.5956 32.8656 30.5956C32.089 30.5956 31.4636 29.9678 31.4636 29.1911Z" fill="#0073AE"/>
<path d="M27.255 28.3262C27.7339 28.3262 28.121 28.7133 28.121 29.1947C28.121 29.6761 27.7339 30.0632 27.255 30.0632C26.7761 30.0632 26.3865 29.6761 26.3865 29.1947C26.3865 28.7133 26.7761 28.3262 27.255 28.3262Z" fill="#0073AE"/>
<path d="M28.657 29.1951C28.657 29.8229 29.1657 30.3291 29.791 30.3291C30.4163 30.3291 30.9275 29.8204 30.9275 29.1951C30.9275 28.5698 30.4188 28.0586 29.791 28.0586C29.1632 28.0586 28.657 28.5673 28.657 29.1951Z" fill="#0073AE"/>
<path d="M39.3471 34.8074C39.3471 34.3285 38.96 33.9414 38.4786 33.9414C37.9972 33.9414 37.6101 34.3285 37.6101 34.8074C37.6101 35.2864 37.9972 35.6759 38.4786 35.6759C38.96 35.6759 39.3471 35.2864 39.3471 34.8074Z" fill="#003F5D"/>
<path d="M38.4785 33.4033C37.8507 33.4033 37.3445 32.8946 37.3445 32.2693C37.3445 31.644 37.8532 31.1328 38.4785 31.1328C39.1038 31.1328 39.615 31.6415 39.615 32.2693C39.615 32.8971 39.1063 33.4033 38.4785 33.4033Z" fill="#003F5D"/>
<path d="M39.8832 29.1911C39.8832 28.4169 39.2554 27.7891 38.4787 27.7891C37.702 27.7891 37.0742 28.4169 37.0742 29.1911C37.0742 29.9653 37.702 30.5956 38.4787 30.5956C39.2554 30.5956 39.8832 29.9678 39.8832 29.1911Z" fill="#003F5D"/>
<path d="M44.0916 28.3262C43.6127 28.3262 43.2256 28.7133 43.2256 29.1947C43.2256 29.6761 43.6127 30.0632 44.0916 30.0632C44.5705 30.0632 44.9601 29.6761 44.9601 29.1947C44.9601 28.7133 44.5705 28.3262 44.0916 28.3262Z" fill="#003F5D"/>
<path d="M42.6897 29.1951C42.6897 29.8229 42.181 30.3291 41.5557 30.3291C40.9304 30.3291 40.4192 29.8204 40.4192 29.1951C40.4192 28.5698 40.9279 28.0586 41.5557 28.0586C42.1835 28.0586 42.6897 28.5673 42.6897 29.1951Z" fill="#003F5D"/>
<path d="M44.0916 22.7129C43.6127 22.7129 43.2256 23.1 43.2256 23.5814C43.2256 24.0628 43.6127 24.4499 44.0916 24.4499C44.5705 24.4499 44.9601 24.0628 44.9601 23.5814C44.9601 23.1 44.5705 22.7129 44.0916 22.7129Z" fill="#0073AE"/>
<path d="M42.6897 23.5818C42.6897 24.2096 42.181 24.7158 41.5557 24.7158C40.9304 24.7158 40.4192 24.2071 40.4192 23.5818C40.4192 22.9565 40.9279 22.4453 41.5557 22.4453C42.1835 22.4453 42.6897 22.954 42.6897 23.5818Z" fill="#0073AE"/>
<path d="M38.4787 22.1758C37.7045 22.1758 37.0767 22.8036 37.0767 23.5803C37.0767 24.357 37.7045 24.9848 38.4787 24.9848C39.2529 24.9848 39.8832 24.357 39.8832 23.5803C39.8832 22.8036 39.2554 22.1758 38.4787 22.1758Z" fill="#0073AE"/>
<path d="M37.6125 17.9681C37.6125 18.447 37.9997 18.8341 38.4786 18.8341C38.9575 18.8341 39.3471 18.447 39.3471 17.9681C39.3471 17.4892 38.96 17.0996 38.4786 17.0996C37.9972 17.0996 37.6125 17.4892 37.6125 17.9681Z" fill="#0073AE"/>
<path d="M38.481 19.3711C39.1088 19.3711 39.615 19.8798 39.615 20.5051C39.615 21.1304 39.1063 21.6416 38.481 21.6416C37.8557 21.6416 37.3445 21.1329 37.3445 20.5051C37.3445 19.8773 37.8532 19.3711 38.481 19.3711Z" fill="#0073AE"/>
</svg>
