<svg width="71" height="70" viewBox="0 0 71 70" fill="none" xmlns="http://www.w3.org/2000/svg">
<g clip-path="url(#clip0_2033_71)">
<ellipse cx="36.1937" cy="35" rx="35.1937" ry="35" fill="#FFE3E4"/>
<g clip-path="url(#clip1_2033_71)">
<path d="M51.3255 16H20.6745C17.5445 16 15 18.5397 15 21.6639V41.2589C15 44.3831 17.5445 46.9228 20.6745 46.9228H40.6046L50.8783 53.8087C51.0593 53.9362 51.2722 53.9894 51.4852 53.9894C51.6662 53.9894 51.8365 53.9469 51.9962 53.8619C52.3582 53.6706 52.5711 53.2987 52.5711 52.8949V46.3809C54.5726 45.5414 56.9787 43.7136 56.9787 41.2589V21.6639C56.9787 18.5397 54.4342 16 51.3042 16H51.3255ZM54.8068 41.2696C54.8068 42.5554 52.8905 44.0431 51.1658 44.585C50.708 44.7338 50.3992 45.1482 50.3992 45.6264V50.8546L41.5521 44.9251C41.3711 44.8082 41.1582 44.7444 40.9452 44.7444H20.6745C18.7582 44.7444 17.1932 43.1823 17.1932 41.2696V21.6639C17.1932 19.7405 18.7582 18.189 20.6745 18.189H51.3148C53.2418 18.189 54.7962 19.7511 54.7962 21.6639V41.2589L54.8068 41.2696Z" fill="#F67277"/>
<path d="M48.8875 23.2891H23.038C21.8989 23.2891 20.9833 24.2136 20.9833 25.3506C20.9833 26.4876 21.9095 27.4015 23.038 27.4015H48.8875C50.0266 27.4015 50.9422 26.477 50.9422 25.3506C50.9422 24.2242 50.016 23.2891 48.8875 23.2891ZM48.8875 26.0944H23.038C22.6228 26.0944 22.2928 25.765 22.2928 25.3506C22.2928 24.9362 22.6228 24.6067 23.038 24.6067H48.8875C49.3027 24.6067 49.6327 24.9362 49.6327 25.3506C49.6327 25.765 49.3027 26.0944 48.8875 26.0944Z" fill="#F67277"/>
<path d="M48.8875 29.3262H23.038C21.8989 29.3262 20.9833 30.2507 20.9833 31.3877C20.9833 32.5247 21.9095 33.4386 23.038 33.4386H48.8875C50.0266 33.4386 50.9422 32.5141 50.9422 31.3877C50.9422 30.2613 50.016 29.3262 48.8875 29.3262ZM48.8875 32.1209H23.038C22.6228 32.1209 22.2928 31.7915 22.2928 31.3771C22.2928 30.9626 22.6228 30.6332 23.038 30.6332H48.8875C49.3027 30.6332 49.6327 30.9626 49.6327 31.3771C49.6327 31.7915 49.3027 32.1209 48.8875 32.1209Z" fill="#F67277"/>
<path d="M48.8875 35.1387H23.038C21.8989 35.1387 20.9833 36.0632 20.9833 37.1896C20.9833 38.316 21.9095 39.2511 23.038 39.2511H48.8875C50.0266 39.2511 50.9422 38.3266 50.9422 37.1896C50.9422 36.0525 50.016 35.1387 48.8875 35.1387ZM48.8875 37.944H23.038C22.6228 37.944 22.2928 37.6146 22.2928 37.2002C22.2928 36.7858 22.6228 36.4563 23.038 36.4563H48.8875C49.3027 36.4563 49.6327 36.7858 49.6327 37.2002C49.6327 37.6146 49.3027 37.944 48.8875 37.944Z" fill="#F67277"/>
</g>
</g>
<defs>
<clipPath id="clip0_2033_71">
<rect width="71" height="70" fill="white"/>
</clipPath>
<clipPath id="clip1_2033_71">
<rect width="42" height="38" fill="white" transform="translate(15 16)"/>
</clipPath>
</defs>
</svg>
