<svg width="71" height="70" viewBox="0 0 71 70" fill="none" xmlns="http://www.w3.org/2000/svg">
<g clip-path="url(#clip0_2033_76)">
<ellipse cx="36.1937" cy="35" rx="35.1937" ry="35" fill="#E9F9BE"/>
<g clip-path="url(#clip1_2033_76)">
<path d="M18.3788 22.655C18.2109 22.8399 18.0616 23.0248 17.9124 23.2282C16.6064 24.3745 15.5709 26.8981 16.1773 30.0135C18.7892 43.4824 30.2351 53.7435 44.0131 54.9638C44.3116 54.9915 44.6008 55.0008 44.8993 55.0008C46.4851 55.0008 47.9777 54.6125 49.1624 53.8914C49.7407 53.5587 50.2444 53.1519 50.6829 52.6712L51.8676 51.377C54.1717 48.8441 53.9758 44.9245 51.4291 42.6412L49.4329 40.8478C48.2855 39.8216 46.793 39.2485 45.2444 39.2485C43.4814 39.2485 41.793 39.988 40.6176 41.2822L39.4329 42.5764C38.9665 43.0849 38.6027 43.6488 38.3321 44.2774C33.612 42.3084 29.7407 38.8048 27.3527 34.3121C28.2202 33.9608 29.0038 33.4246 29.6288 32.7313L30.8135 31.4371C31.9329 30.2076 32.5019 28.6268 32.418 26.9721C32.334 25.3266 31.6064 23.8013 30.375 22.692L28.3788 20.9079C27.2314 19.8725 25.7389 19.3086 24.1903 19.3086C22.4273 19.3086 20.7389 20.0481 19.5635 21.3423L18.3788 22.6365V22.655ZM20.7482 22.4239C21.625 21.4625 22.875 20.9171 24.1903 20.9171C25.3377 20.9171 26.4478 21.3423 27.2967 22.1004L29.293 23.8845C30.2165 24.7073 30.7482 25.8351 30.8135 27.0645C30.8788 28.294 30.4497 29.4681 29.6194 30.374L28.4347 31.6682C27.8657 32.2876 27.1381 32.7498 26.3359 32.9901L25.9721 33.1011C25.7482 33.1658 25.5616 33.3322 25.4683 33.5448C25.375 33.7574 25.3844 34.007 25.487 34.2104L25.6549 34.5432C28.2762 39.7569 32.7258 43.8059 38.1922 45.9414L38.5 46.0615C38.7053 46.1447 38.9291 46.1355 39.1344 46.0431C39.3303 45.9506 39.4888 45.7842 39.5541 45.5716L39.6568 45.2573C39.862 44.6564 40.1791 44.111 40.6176 43.6395L41.8023 42.3453C42.6791 41.3839 43.9385 40.8293 45.2444 40.8293C46.3918 40.8293 47.5019 41.2545 48.3508 42.0218L50.3471 43.8152C52.2407 45.5161 52.39 48.4281 50.6735 50.3047L49.4888 51.5989C49.1624 51.9501 48.7799 52.2552 48.3415 52.514C47.2034 53.2074 45.7202 53.5124 44.153 53.3645C31.084 52.1997 20.2258 42.4655 17.7444 29.6992C17.2221 27.0183 18.2015 25.0585 18.9944 24.3837C19.0224 24.3652 19.0411 24.3375 19.0691 24.3097L19.125 24.2543C19.125 24.2543 19.1717 24.1988 19.1903 24.1711C19.3023 24.0139 19.4236 23.8568 19.5635 23.7089L20.7482 22.4147V22.4239Z" fill="#A0C246"/>
<path d="M56 33.8861C56 23.4678 47.4552 15 36.9421 15C36.0186 15 35.2723 15.7395 35.2723 16.6547C35.2723 17.5699 36.0186 18.3095 36.9421 18.3095C45.6082 18.3095 52.6604 25.2981 52.6604 33.8861C52.6604 34.8012 53.4067 35.5408 54.3302 35.5408C55.2537 35.5408 56 34.8012 56 33.8861ZM54.3302 34.7458C53.8544 34.7458 53.4626 34.3575 53.4626 33.8861C53.4626 24.8636 46.0559 17.5144 36.9421 17.5144C36.4664 17.5144 36.0746 17.1262 36.0746 16.6547C36.0746 16.1833 36.4664 15.795 36.9421 15.795C47.0074 15.795 55.1977 23.9115 55.1977 33.8861C55.1977 34.3575 54.8059 34.7458 54.3302 34.7458Z" fill="#A0C246"/>
<path d="M36.7369 21.1465C35.8134 21.1465 35.0671 21.886 35.0671 22.8012C35.0671 23.7164 35.8134 24.4559 36.7369 24.4559C42.0914 24.4559 46.4571 28.773 46.4571 34.0885C46.4571 35.0037 47.2033 35.7432 48.1268 35.7432C49.0503 35.7432 49.7966 35.0037 49.7966 34.0885C49.7966 26.9519 43.9384 21.1465 36.7369 21.1465ZM48.1268 34.9482C47.6511 34.9482 47.2593 34.5599 47.2593 34.0885C47.2593 28.3385 42.5392 23.6609 36.7369 23.6609C36.2612 23.6609 35.8694 23.2727 35.8694 22.8012C35.8694 22.3298 36.2612 21.9415 36.7369 21.9415C43.4906 21.9415 48.9944 27.3864 48.9944 34.0792C48.9944 34.5507 48.6026 34.9389 48.1268 34.9389V34.9482Z" fill="#A0C246"/>
</g>
</g>
<defs>
<clipPath id="clip0_2033_76">
<rect width="71" height="70" fill="white"/>
</clipPath>
<clipPath id="clip1_2033_76">
<rect width="40" height="40" fill="white" transform="translate(16 15)"/>
</clipPath>
</defs>
</svg>
