<svg width="71" height="70" viewBox="0 0 71 70" fill="none" xmlns="http://www.w3.org/2000/svg">
<g clip-path="url(#clip0_2033_65)">
<ellipse cx="36.1937" cy="35" rx="35.1937" ry="35" fill="#C4F5F2"/>
<g clip-path="url(#clip1_2033_65)">
<path d="M48.8501 21.1602H22.9693C22.5404 21.1602 22.1943 21.5021 22.1943 21.9259V39.1656C22.1943 39.5893 22.5404 39.9313 22.9693 39.9313H48.8501C49.279 39.9313 49.6251 39.5893 49.6251 39.1656V21.9259C49.6251 21.5021 49.279 21.1602 48.8501 21.1602ZM48.0752 38.3999H23.7442V22.6916H48.0752V38.3999Z" fill="#27B9B2"/>
<path d="M59.9925 48.0338C59.9925 48.0338 59.9925 47.9966 59.9849 47.9818C59.9849 47.952 59.9699 47.9223 59.9624 47.9C59.9624 47.8851 59.9473 47.8702 59.9398 47.8479C59.9248 47.8182 59.9097 47.7885 59.8947 47.7587C59.8947 47.7513 59.8796 47.7364 59.8796 47.729C59.857 47.6918 59.827 47.6547 59.7893 47.6249C59.7818 47.6175 59.7743 47.6101 59.7592 47.6026C59.7367 47.5803 59.7066 47.558 59.6765 47.5357C59.6614 47.5283 59.6464 47.5134 59.6313 47.506C59.6163 47.4985 59.5937 47.4837 59.5787 47.4762L53.7179 44.6141V18.7657C53.7179 18.342 53.3718 18 52.9429 18H18.8765C18.4476 18 18.1016 18.342 18.1016 18.7657V44.6141L12.4213 47.4762C12.4213 47.4762 12.3912 47.4985 12.3762 47.506C12.3611 47.5134 12.3461 47.5283 12.331 47.5357C12.3084 47.5506 12.2784 47.5729 12.2558 47.5952C12.2483 47.6026 12.2332 47.6101 12.2257 47.6249C12.1956 47.6547 12.1655 47.6918 12.1354 47.729C12.1354 47.729 12.1354 47.7364 12.1279 47.7439C12.1053 47.7736 12.0903 47.8108 12.0677 47.8479C12.0677 47.8628 12.0526 47.8777 12.0526 47.8925C12.0451 47.9223 12.0301 47.952 12.0226 47.9743C12.0226 47.9892 12.0226 48.0115 12.015 48.0264C12.015 48.0561 12.0075 48.0858 12.0075 48.1156C12.0075 48.123 12.0075 48.1379 12.0075 48.1453V50.2194C12.0075 50.6432 12.3536 50.9851 12.7824 50.9851H59.2401C59.669 50.9851 60.015 50.6432 60.015 50.2194V48.1453C60.015 48.1453 60.015 48.123 60.015 48.1156C60.015 48.0858 60.015 48.0561 60.0075 48.0189L59.9925 48.0338ZM19.6514 19.5314H52.168V44.3167H19.6514V19.5314ZM19.057 45.8482H52.7548L55.9147 47.3945H15.995L19.057 45.8482ZM58.4577 49.4686H13.5498V48.9185H58.4577V49.4686Z" fill="#27B9B2"/>
<path d="M36.2182 40.3613C35.3003 40.3613 34.5555 41.0973 34.5555 42.0043C34.5555 42.9112 35.3003 43.6472 36.2182 43.6472C37.136 43.6472 37.8809 42.9112 37.8809 42.0043C37.8809 41.0973 37.136 40.3613 36.2182 40.3613ZM36.2182 42.7328C35.8119 42.7328 35.4809 42.4057 35.4809 42.0043C35.4809 41.6028 35.8119 41.2757 36.2182 41.2757C36.6244 41.2757 36.9555 41.6028 36.9555 42.0043C36.9555 42.4057 36.6244 42.7328 36.2182 42.7328Z" fill="#27B9B2"/>
</g>
</g>
<defs>
<clipPath id="clip0_2033_65">
<rect width="71" height="70" fill="white"/>
</clipPath>
<clipPath id="clip1_2033_65">
<rect width="48" height="33" fill="white" transform="translate(12 18)"/>
</clipPath>
</defs>
</svg>
